<?xml version="1.0" encoding="UTF-8"?>
<svg id="Camada_1" data-name="Camada 1" xmlns="http://www.w3.org/2000/svg" viewBox="0 0 1226.1 1226.1">
  <defs>
    <style>
      .cls-1 {
        fill: #fff;
        stroke-width: 0px;
      }
    </style>
  </defs>
  <g>
    <path class="cls-1" d="M696.56,690.57l-80.86-65.83-.09-.08-.08-.08c-4.95-4.95-10.44-5.98-14.17-5.98-10.05,0-20.44,7.6-20.44,20.32v54.12c0,6.94,5.65,12.59,12.59,12.59.15,0,.31,0,.46,0,6.69-.24,12.13-6.04,12.13-12.94v-41.05l3.77,2.94,68.58,53.54.11.09.1.1c2.38,2.38,5.54,3.69,8.91,3.69s6.53-1.31,8.91-3.69c4.88-4.88,4.91-12.81.08-17.73Z"/>
    <path class="cls-1" d="M696.48,517.8c-2.38-2.38-5.54-3.69-8.91-3.69s-6.53,1.31-8.91,3.69l-.1.1-.11.09-68.58,53.54-3.77,2.94v-41.05c0-6.9-5.44-12.7-12.13-12.94-.15,0-.31,0-.46,0-6.94,0-12.59,5.65-12.59,12.59v54.12c0,12.72,10.39,20.32,20.44,20.32,3.74,0,9.23-1.04,14.17-5.98l.08-.08.09-.08,80.86-65.83c4.83-4.92,4.8-12.85-.08-17.73Z"/>
    <path class="cls-1" d="M549.04,589.95c-12.74,0-23.1,10.36-23.1,23.1s10.36,23.1,23.1,23.1,23.1-10.36,23.1-23.1-10.36-23.1-23.1-23.1Z"/>
  </g>
  <path class="cls-1" d="M613.05,771.24c-87.23,0-158.19-70.96-158.19-158.19s70.96-158.19,158.19-158.19,158.19,70.96,158.19,158.19-70.96,158.19-158.19,158.19ZM613.05,474.29c-76.51,0-138.76,62.25-138.76,138.76s62.25,138.76,138.76,138.76,138.76-62.25,138.76-138.76-62.25-138.76-138.76-138.76Z"/>
</svg>